<?xml version="1.0" encoding="utf-8"?>
<!-- Generator: Adobe Illustrator 26.0.3, SVG Export Plug-In . SVG Version: 6.00 Build 0)  -->
<svg version="1.1" id="Слой_1" xmlns="http://www.w3.org/2000/svg" xmlns:xlink="http://www.w3.org/1999/xlink" x="0px" y="0px"
	 viewBox="0 0 6076 6684" style="enable-background:new 0 0 6076 6684;" xml:space="preserve">
<style type="text/css">
	.st0{fill:#303233;}
	.st1{fill:#C69C6D;}
</style>
<g>
	<rect x="806" y="578.5" class="st0" width="4464" height="5527"/>
	<g>
		<g id="XMLID_3_">
			<path id="XMLID_2_" class="st1" d="M4476.41,5717.6H1599.59c-139.3,0-252.23-105.36-252.23-235.33v-3718.7
				c0-129.97,112.93-235.33,252.23-235.33h229.5c37.65,0,68.17,28.48,68.17,63.6v0c0,35.13-30.52,63.6-68.17,63.6h-229.5
				c-64,0-115.89,48.41-115.89,108.13v3718.7c0,59.72,51.89,108.13,115.89,108.13h2876.82c64,0,115.89-48.41,115.89-108.13v-3718.7
				c0-59.72-51.89-108.13-115.89-108.13h-229.5c-37.65,0-68.17-28.48-68.17-63.6v0c0-35.13,30.52-63.6,68.17-63.6h229.5
				c139.3,0,252.23,105.36,252.23,235.33v3718.7C4728.64,5612.24,4615.71,5717.6,4476.41,5717.6z"/>
		</g>
		<path id="XMLID_21_" class="st1" d="M2061.92,2250.82c27.9-1.2,55.87,0.97,83.15,6.52c17.31,3.52,34.51,7.32,51.03,12.87
			c154.27,51.87,246.94,201.75,219.52,352.67c-24.06,132.44-133.23,238.23-271.19,262.81c-183.53,32.7-357.12-70.92-402.6-240.32
			c-49-182.48,87.48-367.9,289.11-392.88C2033.37,2252.2,2046.6,2251.48,2061.92,2250.82z M1872.36,2531.09L1872.36,2531.09
			c-20.12,18.66-20.2,48.98-0.15,67.7c37.12,34.64,74.55,69.56,111.61,104.14c20.01,18.68,52.39,18.68,72.4,0.01l224.28-209.24
			c20.06-18.71,20.02-48.98-0.02-67.65l-2.01-1.87c-20.02-18.66-52.42-18.69-72.42-0.01c-50.19,46.86-100.88,94.18-151.85,141.76
			c-20.07,18.74-52.71,18.67-72.71-0.14c-12.34-11.61-24.58-23.13-36.67-34.5C1924.87,2512.52,1892.45,2512.46,1872.36,2531.09z"/>
		<path id="XMLID_4_" class="st1" d="M4302.86,2534.6H2627.55c-4.23,0-7.67-3.43-7.67-7.67v-179.72c0-4.23,3.43-7.67,7.67-7.67
			h1675.31c4.23,0,7.67,3.43,7.67,7.67v179.72C4310.52,2531.17,4307.09,2534.6,4302.86,2534.6z"/>
		<path id="XMLID_6_" class="st1" d="M3934.74,2802.67H2641.19c-4.23,0-7.67-3.43-7.67-7.67v-179.72c0-4.23,3.43-7.67,7.67-7.67
			h1293.55c4.23,0,7.67,3.43,7.67,7.67V2795C3942.4,2799.24,3938.97,2802.67,3934.74,2802.67z"/>
		<path id="XMLID_9_" class="st1" d="M2061.92,3354.35c27.9-1.2,55.87,0.97,83.15,6.52c17.31,3.52,34.51,7.32,51.03,12.87
			c154.27,51.87,246.94,201.75,219.52,352.67c-24.06,132.44-133.23,238.23-271.19,262.81c-183.53,32.7-357.12-70.92-402.6-240.32
			c-49-182.48,87.48-367.9,289.11-392.88C2033.37,3355.73,2046.6,3355.01,2061.92,3354.35z M1872.36,3634.62L1872.36,3634.62
			c-20.12,18.66-20.2,48.98-0.15,67.7c37.12,34.64,74.55,69.56,111.61,104.14c20.01,18.68,52.39,18.68,72.4,0.01l224.28-209.24
			c20.06-18.71,20.02-48.98-0.02-67.65l-2.01-1.87c-20.02-18.66-52.42-18.69-72.42-0.01c-50.19,46.86-100.88,94.18-151.85,141.76
			c-20.07,18.74-52.71,18.67-72.71-0.14c-12.34-11.61-24.58-23.13-36.67-34.51C1924.87,3616.04,1892.45,3615.99,1872.36,3634.62z"/>
		<path id="XMLID_8_" class="st1" d="M4302.86,3638.12H2627.55c-4.23,0-7.67-3.43-7.67-7.67v-179.72c0-4.23,3.43-7.67,7.67-7.67
			h1675.31c4.23,0,7.67,3.43,7.67,7.67v179.72C4310.52,3634.69,4307.09,3638.12,4302.86,3638.12z"/>
		<path id="XMLID_7_" class="st1" d="M3541.62,3906.19h-900.43c-4.23,0-7.67-3.43-7.67-7.67v-179.72c0-4.23,3.43-7.67,7.67-7.67
			h900.43c4.23,0,7.67,3.43,7.67,7.67v179.72C3549.28,3902.76,3545.85,3906.19,3541.62,3906.19z"/>
		<path id="XMLID_16_" class="st1" d="M2061.92,4499.21c27.9-1.2,55.87,0.97,83.15,6.52c17.31,3.52,34.51,7.32,51.03,12.87
			c154.27,51.87,246.94,201.75,219.52,352.67c-24.06,132.44-133.23,238.23-271.19,262.81c-183.53,32.7-357.12-70.92-402.6-240.32
			c-49-182.48,87.48-367.9,289.11-392.88C2033.37,4500.59,2046.6,4499.87,2061.92,4499.21z M1872.36,4779.48L1872.36,4779.48
			c-20.12,18.66-20.2,48.98-0.15,67.7c37.12,34.64,74.55,69.56,111.61,104.14c20.01,18.68,52.39,18.68,72.4,0.01l224.28-209.24
			c20.06-18.71,20.02-48.98-0.02-67.65l-2.01-1.87c-20.02-18.66-52.42-18.69-72.42-0.01c-50.19,46.86-100.88,94.18-151.85,141.76
			c-20.07,18.74-52.71,18.67-72.71-0.14c-12.34-11.61-24.58-23.13-36.67-34.5C1924.87,4760.91,1892.45,4760.85,1872.36,4779.48z"/>
		<path id="XMLID_15_" class="st1" d="M3657.51,4782.99H2627.55c-4.23,0-7.67-3.43-7.67-7.67V4595.6c0-4.23,3.43-7.67,7.67-7.67
			h1029.96c4.23,0,7.67,3.43,7.67,7.67v179.72C3665.17,4779.56,3661.74,4782.99,3657.51,4782.99z"/>
		<path id="XMLID_13_" class="st1" d="M4302.86,5051.06H2640.42c-4.23,0-7.67-3.43-7.67-7.67v-179.72c0-4.23,3.43-7.67,7.67-7.67
			h1662.43c4.23,0,7.67,3.43,7.67,7.67v179.72C4310.52,5047.63,4307.09,5051.06,4302.86,5051.06z"/>
		<path id="XMLID_22_" class="st1" d="M3931.04,1269.58h-331.56C3583.11,1100.57,3338.02,966.4,3038,966.4
			s-545.11,134.17-561.48,303.18h-331.56c-58.98,0-106.8,44.61-106.8,99.65v343.46c0,55.03,47.82,99.65,106.8,99.65h1786.08
			c58.98,0,106.8-44.61,106.8-99.65v-343.46C4037.84,1314.19,3990.02,1269.58,3931.04,1269.58z M3038,1413.75
			c-130.05,0-235.47-59.26-235.47-132.37c0-73.1,105.43-132.37,235.47-132.37s235.47,59.26,235.47,132.37
			C3273.47,1354.49,3168.05,1413.75,3038,1413.75z"/>
	</g>
</g>
</svg>
